<svg>
    <simbol width="181.835938" height="30.239990" viewBox="0 0 181.836 30.24"
        xmlns="http://www.w3.org/2000/svg" fill="none">
        <path id="YourTour"
            d="M7.47656 0L13.9023 13.188L20.4121 0L27.9297 0L17.3047 19.656L17.3047 29.8201L10.457 29.8201L10.457 19.572L0 0L7.47656 0ZM116.92 6.0481L107.848 6.0481L107.848 29.8201L100.959 29.8201L100.959 6.0481L91.8457 6.0481L91.8457 0L116.92 0L116.92 6.0481ZM36.8047 30.24C34.2832 30.24 32.1426 29.708 30.3789 28.644Q28.75 27.646 27.5977 26.2542L27.5977 26.2542Q26.9082 25.4197 26.3887 24.4441C25.4648 22.708 25.002 20.832 25.002 18.8159C25.002 16.772 25.4648 14.8821 26.3887 13.146C27.3125 11.4099 28.6562 10.01 30.4199 8.94604Q33.0664 7.3501 36.8047 7.3501Q40.543 7.3501 43.1875 8.94604Q44.9414 10.0034 46.1406 11.5037Q46.752 12.2673 47.2207 13.146Q47.6855 14.022 47.9961 14.95Q48.6055 16.7812 48.6055 18.8159Q48.6055 20.6472 48.0977 22.3245Q47.7676 23.4167 47.2207 24.4441C46.2969 26.1799 44.9512 27.5801 43.1875 28.644C41.4238 29.708 39.2969 30.24 36.8047 30.24ZM126.383 30.24C123.861 30.24 121.721 29.708 119.957 28.644Q118.328 27.646 117.176 26.2542Q116.486 25.4199 115.967 24.4441C115.043 22.708 114.58 20.832 114.58 18.8159C114.58 16.772 115.043 14.8821 115.967 13.146C116.891 11.4099 118.234 10.01 119.998 8.94604C121.762 7.88208 123.891 7.3501 126.383 7.3501C128.875 7.3501 131.002 7.88208 132.766 8.94604C134.531 10.01 135.875 11.4099 136.799 13.146C137.723 14.8821 138.184 16.772 138.184 18.8159C138.184 20.832 137.723 22.708 136.799 24.4441C135.875 26.1799 134.531 27.5801 132.766 28.644C131.002 29.708 128.875 30.24 126.383 30.24ZM92.2578 13.5239C90.6328 13.552 89.1621 13.8181 87.8477 14.322C86.5312 14.8259 85.5781 15.582 84.9902 16.5901L84.9902 29.8201L78.2715 29.8201L78.2715 7.77002L84.4453 7.77002L84.4453 12.2219C85.2012 10.738 86.1816 9.57593 87.3848 8.73608C88.5898 7.896 89.8496 7.46191 91.1641 7.43408C91.7246 7.43408 92.0898 7.448 92.2578 7.47607L92.2578 13.5239ZM181.836 13.5239C180.211 13.552 178.74 13.8181 177.426 14.322C176.109 14.8259 175.156 15.582 174.568 16.5901L174.568 29.8201L167.85 29.8201L167.85 7.77002L174.023 7.77002L174.023 12.2219C174.779 10.738 175.76 9.57593 176.963 8.73608C178.168 7.896 179.428 7.46191 180.742 7.43408C181.303 7.43408 181.668 7.448 181.836 7.47607L181.836 13.5239ZM51.7285 21.8821L51.7285 7.77002L58.4492 7.77002L58.4492 20.4121C58.4492 23.1841 59.4707 24.5701 61.5156 24.5701C62.4102 24.5701 63.2793 24.332 64.1191 23.856C64.959 23.3521 65.7012 22.5259 66.3457 21.3779L66.3457 7.77002L73.0645 7.77002L73.0645 22.344Q73.0645 23.3521 73.3594 23.772C73.582 24.052 73.9609 24.2061 74.4922 24.2339L74.4922 29.8201C73.8496 29.9319 73.3027 30.0161 72.8555 30.072Q72.1836 30.156 71.6367 30.156C69.2285 30.156 67.8574 29.218 67.5215 27.342L67.3945 25.998C66.3867 27.4541 65.127 28.532 63.6152 29.2319C62.1309 29.9041 60.4648 30.24 58.6172 30.24C56.377 30.24 54.668 29.5259 53.4922 28.0979Q51.7285 25.9561 51.7285 21.8821ZM141.307 21.8821L141.307 7.77002L148.027 7.77002L148.027 20.4121C148.027 23.1841 149.049 24.5701 151.094 24.5701C151.988 24.5701 152.857 24.332 153.697 23.856C154.537 23.3521 155.279 22.5259 155.924 21.3779L155.924 7.77002L162.643 7.77002L162.643 22.344C162.643 23.0161 162.74 23.4919 162.938 23.772C163.16 24.052 163.539 24.2061 164.07 24.2339L164.07 29.8201C163.428 29.9319 162.881 30.0161 162.434 30.072C161.984 30.1279 161.578 30.156 161.215 30.156C158.807 30.156 157.436 29.218 157.1 27.342L156.973 25.998C155.965 27.4541 154.705 28.532 153.193 29.2319C151.709 29.9041 150.043 30.24 148.195 30.24C145.955 30.24 144.246 29.5259 143.07 28.0979Q141.307 25.9561 141.307 21.8821ZM31.8906 18.8159C31.8906 20.5239 32.3516 21.9099 33.2754 22.9741C34.2285 24.0381 35.4043 24.5701 36.8047 24.5701C38.1758 24.5701 39.3242 24.0381 40.248 22.9741C41.1992 21.9099 41.6758 20.5239 41.6758 18.8159C41.6758 17.1079 41.1992 15.7219 40.248 14.658C39.3242 13.594 38.1758 13.062 36.8047 13.062C35.4043 13.062 34.2285 13.594 33.2754 14.658C32.3516 15.7219 31.8906 17.1079 31.8906 18.8159ZM121.469 18.8159C121.469 20.5239 121.93 21.9099 122.854 22.9741C123.807 24.0381 124.982 24.5701 126.383 24.5701C127.754 24.5701 128.902 24.0381 129.826 22.9741C130.777 21.9099 131.254 20.5239 131.254 18.8159C131.254 17.1079 130.777 15.7219 129.826 14.658C128.902 13.594 127.754 13.062 126.383 13.062C124.982 13.062 123.807 13.594 122.854 14.658C121.93 15.7219 121.469 17.1079 121.469 18.8159Z"
            fill="#1B1F2B" fill-opacity="1.000000" fillRule="evenodd" />
    </simbol>
    <simbol alt="Arrow" width="24" height="26" viewBox="0 0 24 26" fill="none"
        xmlns="http://www.w3.org/2000/svg">
        <path id="Arrow"
            d="M22.7004 12.2833L16.1535 5.79682C15.7541 5.40106 15.1063 5.40106 14.7068 5.79682C14.3073 6.19266 14.3073 6.83433 14.7068 7.23017L19.5074 11.9865H2.02294C1.45803 11.9865 1 12.4403 1 13C1 13.5596 1.45803 14.0135 2.02294 14.0135H19.5074L14.707 18.7698C14.3075 19.1656 14.3075 19.8073 14.707 20.2032C14.9067 20.4009 15.1686 20.5 15.4304 20.5C15.6921 20.5 15.9539 20.4009 16.1537 20.2032L22.7004 13.7167C23.0999 13.3208 23.0999 12.6792 22.7004 12.2833Z"
            fill="#fff" />
    </simbol>
    <simbol alt="icon-instagram" width="23" height="23" viewBox="0 0 23 23" fill="none"
        xmlns="http://www.w3.org/2000/svg">
        <path id='icon-instagram'
            d="M9.16723 11.5C9.16723 10.2114 10.2116 9.16648 11.5003 9.16648C12.7889 9.16648 13.8339 10.2114 13.8339 11.5C13.8339 12.7886 12.7889 13.8335 11.5003 13.8335C10.2116 13.8335 9.16723 12.7886 9.16723 11.5ZM7.90571 11.5C7.90571 13.4852 9.51498 15.0944 11.5003 15.0944C13.4856 15.0944 15.0949 13.4852 15.0949 11.5C15.0949 9.51478 13.4856 7.90557 11.5003 7.90557C9.51498 7.90557 7.90571 9.51478 7.90571 11.5ZM14.3971 7.76309C14.3971 8.22674 14.7731 8.60331 15.2373 8.60331C15.701 8.60331 16.0776 8.22674 16.0776 7.76309C16.0776 7.29943 15.7016 6.92342 15.2373 6.92342C14.7731 6.92342 14.3971 7.29943 14.3971 7.76309ZM8.6719 17.1978C7.9894 17.1667 7.61846 17.0531 7.37193 16.9569C7.04509 16.8297 6.81213 16.6782 6.56672 16.4334C6.32188 16.1885 6.16978 15.9556 6.04312 15.6288C5.94699 15.3822 5.83333 15.0113 5.80223 14.3288C5.76831 13.591 5.76152 13.3693 5.76152 11.5C5.76152 9.63069 5.76887 9.40961 5.80223 8.67116C5.83333 7.98869 5.94755 7.61834 6.04312 7.37124C6.17034 7.04443 6.32188 6.81147 6.56672 6.56607C6.81156 6.32124 7.04453 6.16914 7.37193 6.04249C7.61846 5.94636 7.9894 5.83271 8.6719 5.80162C9.40981 5.76769 9.63147 5.7609 11.5003 5.7609C13.3697 5.7609 13.5908 5.76826 14.3292 5.80162C15.0117 5.83271 15.3821 5.94693 15.6292 6.04249C15.956 6.16914 16.189 6.32124 16.4344 6.56607C16.6792 6.8109 16.8308 7.04443 16.958 7.37124C17.0541 7.61777 17.1678 7.98869 17.1989 8.67116C17.2328 9.40961 17.2396 9.63069 17.2396 11.5C17.2396 13.3687 17.2328 13.5904 17.1989 14.3288C17.1678 15.0113 17.0536 15.3822 16.958 15.6288C16.8308 15.9556 16.6792 16.1885 16.4344 16.4334C16.1896 16.6782 15.956 16.8297 15.6292 16.9569C15.3827 17.0531 15.0117 17.1667 14.3292 17.1978C13.5913 17.2317 13.3697 17.2385 11.5003 17.2385C9.63147 17.2385 9.40981 17.2317 8.6719 17.1978ZM8.61422 4.54241C7.86896 4.57633 7.36005 4.69451 6.91504 4.86753C6.45476 5.0462 6.0646 5.28595 5.67501 5.67496C5.28598 6.06397 5.04623 6.45412 4.86754 6.91494C4.69452 7.35994 4.57634 7.86882 4.54241 8.61405C4.50792 9.36042 4.5 9.59903 4.5 11.5C4.5 13.401 4.50792 13.6396 4.54241 14.3859C4.57634 15.1312 4.69452 15.6401 4.86754 16.0851C5.04623 16.5453 5.28541 16.936 5.67501 17.325C6.06404 17.7141 6.4542 17.9532 6.91504 18.1325C7.36062 18.3055 7.86896 18.4237 8.61422 18.4576C9.36118 18.4915 9.59924 18.5 11.5003 18.5C13.4019 18.5 13.6399 18.4921 14.3863 18.4576C15.1316 18.4237 15.6405 18.3055 16.0855 18.1325C16.5458 17.9532 16.936 17.7141 17.3256 17.325C17.7146 16.936 17.9538 16.5453 18.133 16.0851C18.3061 15.6401 18.4248 15.1312 18.4582 14.3859C18.4921 13.639 18.5 13.401 18.5 11.5C18.5 9.59903 18.4921 9.36042 18.4582 8.61405C18.4242 7.86882 18.3061 7.35994 18.133 6.91494C17.9538 6.45468 17.7146 6.06454 17.3256 5.67496C16.9365 5.28595 16.5458 5.0462 16.0861 4.86753C15.6405 4.69451 15.1316 4.57577 14.3869 4.54241C13.6405 4.50848 13.4019 4.5 11.5008 4.5C9.59924 4.5 9.36118 4.50792 8.61422 4.54241Z"
            fill="#A6A6A6" />
    </simbol>
    <simbol alt="icon-facebook" width="22" height="21" viewBox="0 0 22 21" fill="none"
        xmlns="http://www.w3.org/2000/svg">
        <path id='icon-facebook'
            d="M15.4881 2H12.7711C11.1587 2 9.36529 2.67811 9.36529 5.01522C9.37316 5.82956 9.36529 6.60945 9.36529 7.48717H7.5V10.4553H9.42302V19H12.9567V10.3989H15.289L15.5 7.47885H12.8958C12.8958 7.47885 12.9016 6.17988 12.8958 5.80265C12.8958 4.87908 13.8568 4.93197 13.9146 4.93197C14.3719 4.93197 15.2612 4.9333 15.4894 4.93197V2H15.4881Z"
            fill="#A6A6A6" />
    </simbol>
    <simbol alt="icon-vkontakte" width="21" height="21" viewBox="0 0 21 21" fill="none"
        xmlns="http://www.w3.org/2000/svg">
        <g clip-path="url(#clip0_34589_18)">
            <path fill-rule="evenodd" clip-rule="evenodd" id='icon-vkontakte'
                d="M20.0395 5.30526C20.1802 4.83158 20.0395 4.5 19.383 4.5H17.1946C16.6318 4.5 16.3817 4.8 16.241 5.13158C16.241 5.13158 15.1312 7.87895 13.5524 9.64737C13.0366 10.1684 12.8177 10.3263 12.5363 10.3263C12.3957 10.3263 12.1924 10.1684 12.1924 9.69474V5.30526C12.1924 4.73684 12.0361 4.5 11.5672 4.5H8.12823C7.78433 4.5 7.56549 4.76842 7.56549 5.00526C7.56549 5.5421 8.34707 5.66842 8.44086 7.15263V10.4053C8.44086 11.1158 8.31581 11.2421 8.03444 11.2421C7.29975 11.2421 5.48648 8.49474 4.42353 5.33684C4.20469 4.75263 4.00148 4.5 3.43874 4.5H1.25032C0.625053 4.5 0.5 4.8 0.5 5.13158C0.5 5.71579 1.23469 8.62105 3.95459 12.4579C5.76785 15.0789 8.31581 16.5 10.6293 16.5C12.0205 16.5 12.1924 16.1842 12.1924 15.6474V13.6579C12.1924 13.0263 12.3175 12.9 12.7708 12.9C13.0991 12.9 13.6462 13.0579 14.9436 14.3211C16.4286 15.8211 16.6787 16.5 17.5072 16.5H19.6956C20.3209 16.5 20.6335 16.1842 20.4459 15.5684C20.2427 14.9526 19.5393 14.0526 18.6014 12.9789C18.0856 12.3632 17.3196 11.7158 17.1008 11.3842C16.7725 10.9579 16.8663 10.7684 17.1008 10.4053C17.1008 10.3895 19.7738 6.6 20.0395 5.30526Z"
                fill="#A6A6A6" />
        </g>
        <defs>
            <clipPath id="clip0_34589_18">
                <rect width="20" height="20" fill="white" transform="translate(0.5 0.5)" />
            </clipPath>
        </defs>
    </simbol>
    <simbol width="26" height="26" viewBox="0 0 26 26" fill="none"
        xmlns="http://www.w3.org/2000/svg">
        <path fillRule="evenodd" clipRule="evenodd" id='ic-dropdown'
            d="M13 19.4141L4.29289 10.707C3.90236 10.3164 3.90237 9.68326 4.29289 9.29274C4.68341 8.90221 5.31658 8.90221 5.7071 9.29274L13 16.5856L20.2929 9.29274C20.6834 8.90221 21.3166 8.90221 21.7071 9.29274C22.0976 9.68326 22.0976 10.3164 21.7071 10.707L13 19.4141Z"
            fill="#1B1F2B" />
    </simbol>
    <simbol width="13" height="10" viewBox="0 0 13 10" fill="none"
        xmlns="http://www.w3.org/2000/svg">
        <path fillRule="evenodd" clipRule="evenodd" id='custom-checkbox-img'
            d="M0.293044 4.53581C0.683569 4.14529 1.31673 4.14529 1.70726 4.53581L4.62161 7.45017L11.1574 0.914353C11.5479 0.523829 12.1811 0.523829 12.5716 0.914353C12.9622 1.30488 12.9622 1.93804 12.5716 2.32857L5.32872 9.57149C4.93819 9.96201 4.30503 9.96201 3.9145 9.57149L0.293044 5.95003C-0.09748 5.5595 -0.09748 4.92634 0.293044 4.53581Z"
            fill="#1B1F2B" />
    </simbol>
</svg>